<svg width="96" height="97" viewBox="0 0 96 97" fill="none" xmlns="http://www.w3.org/2000/svg">
<path d="M42.6667 3.58897C45.9669 1.68355 50.0331 1.68355 53.3333 3.58897L84.2359 21.4306C87.5362 23.336 89.5692 26.8573 89.5692 30.6682V66.3514C89.5692 70.1622 87.5362 73.6836 84.2359 75.589L53.3333 93.4306C50.0331 95.336 45.9669 95.336 42.6667 93.4306L11.7641 75.589C8.46384 73.6835 6.43078 70.1622 6.43078 66.3514V30.6682C6.43078 26.8573 8.46384 23.336 11.7641 21.4306L42.6667 3.58897Z" fill="#246BFD"/>
<path d="M38 39H28V49H38V39Z" fill="white"/>
<path d="M68 39H58V49H68V39Z" fill="white"/>
<path d="M58 29H48V39H58V29Z" fill="white"/>
<path d="M48 29H38V39H48V29Z" fill="white"/>
<path d="M38 49H28V59H38V49Z" fill="white"/>
<path d="M68 49H58V59H68V49Z" fill="white"/>
<path d="M58 59H48V69H58V59Z" fill="white"/>
<path d="M48 59H38V69H48V59Z" fill="white"/>
</svg>
